<?xml version="1.0" encoding="UTF-8" standalone="no"?>
<svg
   xmlns:dc="http://purl.org/dc/elements/1.1/"
   xmlns:cc="http://creativecommons.org/ns#"
   xmlns:rdf="http://www.w3.org/1999/02/22-rdf-syntax-ns#"
   xmlns:svg="http://www.w3.org/2000/svg"
   xmlns="http://www.w3.org/2000/svg"
   xmlns:xlink="http://www.w3.org/1999/xlink"
   xmlns:sodipodi="http://sodipodi.sourceforge.net/DTD/sodipodi-0.dtd"
   xmlns:inkscape="http://www.inkscape.org/namespaces/inkscape"
   width="470"
   height="80"
   viewBox="0 0 124.35416 21.166666"
   version="1.1"
   id="svg8"
   inkscape:version="1.0.2 (e86c870879, 2021-01-15)"
   sodipodi:docname="pomodoro_logo.svg">
  <defs
     id="defs2">
    <linearGradient
       inkscape:collect="always"
       id="linearGradient976">
      <stop
         style="stop-color:#ff9955;stop-opacity:1"
         offset="0"
         id="stop972" />
      <stop
         style="stop-color:#ff0000;stop-opacity:1"
         offset="1"
         id="stop974" />
    </linearGradient>
    <linearGradient
       inkscape:collect="always"
       xlink:href="#linearGradient976"
       id="linearGradient982"
       x1="223.74669"
       y1="120.01919"
       x2="221.70509"
       y2="-24.389877"
       gradientUnits="userSpaceOnUse"
       gradientTransform="matrix(0.26234272,0,0,0.26234272,0.88536166,-0.03914237)" />
  </defs>
  <sodipodi:namedview
     id="base"
     pagecolor="#ffffff"
     bordercolor="#666666"
     borderopacity="1.0"
     inkscape:pageopacity="0.0"
     inkscape:pageshadow="2"
     inkscape:zoom="1.8101934"
     inkscape:cx="293.63055"
     inkscape:cy="87.401509"
     inkscape:document-units="px"
     inkscape:current-layer="layer1"
     inkscape:document-rotation="0"
     showgrid="false"
     units="px"
     inkscape:window-width="1680"
     inkscape:window-height="997"
     inkscape:window-x="-8"
     inkscape:window-y="124"
     inkscape:window-maximized="1" />
  <metadata
     id="metadata5">
    <rdf:RDF>
      <cc:Work
         rdf:about="">
        <dc:format>image/svg+xml</dc:format>
        <dc:type
           rdf:resource="http://purl.org/dc/dcmitype/StillImage" />
        <dc:title></dc:title>
      </cc:Work>
    </rdf:RDF>
  </metadata>
  <g
     inkscape:label="Layer 1"
     inkscape:groupmode="layer"
     id="layer1">
    <path
       d="M 6.3151527,5.4521005 C 5.7578158,5.1752773 5.2070402,4.4723515 5.0368453,4.2328478 c 0.3014297,0.023787 0.8805025,0.3030698 1.2036675,0.3030698 1.0982698,0 1.9037223,-1.1347694 3.8673202,-0.4330743 L 9.4003968,1.0672235 A 0.51320944,0.51320944 0 0 1 10.39901,0.8301797 l 0.663146,2.6685747 0.0013,-4.722e-4 c 1.340234,-0.4453785 2.306858,0.4621912 3.268972,0.7345026 1.072434,0.3030698 2.105495,-0.1201616 2.129282,-0.1295938 -0.01723,0.024196 -0.667245,0.9239736 -1.512889,1.3340829 q -0.10273,0.049826 -0.204235,0.091454 A 3.8216346,3.8216346 0 0 1 12.765362,5.776843 2.8636627,2.8636627 0 0 1 14.131433,8.8793103 C 13.889062,8.6623643 13.511351,8.1567013 13.168911,8.0037301 12.74445,7.8146702 11.653563,7.6875363 10.876817,6.5084756 10.597943,6.5174975 10.483112,7.9016137 9.2696018,8.1694144 8.9579199,8.2383127 7.9232169,8.1788535 7.7157023,8.357244 7.8498074,6.9641055 9.0551155,6.6425814 8.6265525,5.5676873 8.3993524,5.6464282 7.3716214,5.9749248 6.3160029,5.4524471 c -3.936e-4,0 -3.936e-4,-4.723e-4 -8.133e-4,-4.723e-4 z"
       fill="#97c447"
       id="path10"
       style="stroke-width:0.0410108" />
    <path
       d="M 13.66786,6.5975729 C 13.554133,6.5900971 13.459853,6.5788307 13.389519,6.568864 A 2.9236615,2.9236615 0 0 1 13.862415,6.9121258 2.8291725,2.8291725 0 0 0 13.66786,6.5975729 Z"
       fill="#7c993c"
       id="path12"
       style="stroke-width:0.0410108" />
    <path
       d="m 6.8646976,5.3278775 c 1.0982698,0 1.9037224,-1.1347692 3.8673214,-0.4330742 L 10.024581,1.8591419 A 0.51210211,0.51210211 0 0 1 10.499241,1.233399 L 10.39901,0.8301797 A 0.51320944,0.51320944 0 0 0 9.4003968,1.0672235 L 10.107833,4.1028433 C 8.1442351,3.4011482 7.3387826,4.5359176 6.2405128,4.5359176 c -0.323165,0 -0.9022378,-0.2792833 -1.2036675,-0.3030698 a 5.6112237,5.6112237 0 0 0 0.7041968,0.8031975 c 0.315209,0.056963 0.8269833,0.2918322 1.1236555,0.2918322 z"
       fill="#7c993c"
       id="path14"
       style="stroke-width:0.0410108" />
    <path
       d="m 14.75313,5.5497048 c 2.707943,1.3685319 4.538666,3.984202 4.538666,6.9861932 0,4.418096 -3.965336,7.999573 -8.857106,7.999573 -4.8917712,0 -8.8571074,-3.581477 -8.8571074,-7.999573 0,-3.0754006 1.920947,-5.7447949 4.7375701,-7.0837975 3.934e-4,0 3.934e-4,4.722e-4 8.132e-4,4.722e-4 C 7.3715844,5.9750499 8.3993157,5.6465538 8.6265154,5.567813 9.0550784,6.6427068 7.8497704,6.9642312 7.715665,8.3573694 7.9231796,8.1789718 8.9578831,8.2384381 9.2695651,8.1695402 10.483075,7.9017393 10.597906,6.5176237 10.87678,6.508601 c 0.776746,1.179061 1.867633,1.3061948 2.292094,1.4952547 0.34244,0.1529713 0.720151,0.6586342 0.962524,0.8755806 A 2.8636627,2.8636627 0 0 0 12.765327,5.7769607 3.8216346,3.8216346 0 0 0 14.744509,5.5288451 Z"
       fill="#f43b3b"
       id="path16"
       style="stroke-width:0.0410108" />
    <path
       d="m 13.793477,17.587817 c -4.891772,0 -8.8571084,-3.581476 -8.8571084,-7.9995709 A 7.3867461,7.3867461 0 0 1 6.1607878,5.5273957 C 3.428688,6.8894888 1.5775826,9.5170104 1.5775826,12.535898 c 0,4.418096 3.9653362,7.999573 8.8571074,7.999573 3.250559,0 6.09146,-1.581706 7.632113,-3.939173 a 9.5681938,9.5681938 0 0 1 -4.273326,0.991519 z"
       fill="#d61d1d"
       id="path18"
       style="stroke-width:0.0410108" />
    <g
       opacity="0.8"
       id="g22"
       transform="matrix(0.04101083,0,0,0.04101083,-0.06408052,-0.01095166)">
      <path
         d="m 140.522,434.46 a 5.986,5.986 0 0 1 -4.476,-2 203.428,203.428 0 0 1 -20.949,-27.9 6.0002838,6.0002838 0 0 1 10.186,-6.345 191.276,191.276 0 0 0 19.711,26.245 6,6 0 0 1 -4.472,10 z"
         fill="#e9e9e9"
         id="path20" />
    </g>
    <g
       opacity="0.8"
       id="g26"
       transform="matrix(0.04101083,0,0,0.04101083,-0.06408052,-0.01095166)">
      <path
         d="m 102.319,369.942 a 6,6 0 0 1 -5.672,-4.047 184.1,184.1 0 0 1 0.495,-121.333 6.0010802,6.0010802 0 0 1 11.316,4 172.088,172.088 0 0 0 -0.465,113.428 6.005,6.005 0 0 1 -5.674,7.956 z"
         fill="#e9e9e9"
         id="path24" />
    </g>
    <text
       xml:space="preserve"
       style="font-style:normal;font-weight:normal;font-size:16.3042px;line-height:1.25;font-family:sans-serif;fill:url(#linearGradient982);fill-opacity:1;stroke:none;stroke-width:0.407607"
       x="23.334692"
       y="17.116287"
       id="text89"><tspan
         sodipodi:role="line"
         id="tspan87"
         x="23.334692"
         y="17.116287"
         style="font-style:normal;font-variant:normal;font-weight:normal;font-stretch:normal;font-family:'Book Antiqua';-inkscape-font-specification:'Book Antiqua';fill:url(#linearGradient982);fill-opacity:1;stroke-width:0.407607">POMODORO</tspan></text>
  </g>
</svg>
